<mxfile host="app.diagrams.net" modified="2022-11-18T08:45:48.323Z" agent="5.0 (Windows NT 10.0; Win64; x64) AppleWebKit/537.36 (KHTML, like Gecko) Chrome/107.0.0.0 Safari/537.36" etag="jzGprHQZ8RLqGdovwuuT" version="20.5.3" type="github">
  <diagram id="EZfjlVm1F-sVhCLYg_BL" name="Page-1">
    <mxGraphModel dx="782" dy="436" grid="1" gridSize="10" guides="1" tooltips="1" connect="1" arrows="1" fold="1" page="1" pageScale="1" pageWidth="827" pageHeight="1169" math="0" shadow="0">
      <root>
        <mxCell id="0" />
        <mxCell id="1" parent="0" />
        <mxCell id="ndePbhPjDnnVmBp4KooU-1" value="Use Case" style="shape=umlFrame;whiteSpace=wrap;html=1;" vertex="1" parent="1">
          <mxGeometry x="500" y="160" width="440" height="550" as="geometry" />
        </mxCell>
        <mxCell id="ndePbhPjDnnVmBp4KooU-2" value="s&#39;authentifier" style="ellipse;whiteSpace=wrap;html=1;" vertex="1" parent="1">
          <mxGeometry x="790" y="170" width="140" height="70" as="geometry" />
        </mxCell>
        <mxCell id="ndePbhPjDnnVmBp4KooU-3" value="ajouter un mdp" style="ellipse;whiteSpace=wrap;html=1;" vertex="1" parent="1">
          <mxGeometry x="790" y="280.5" width="140" height="70" as="geometry" />
        </mxCell>
        <mxCell id="ndePbhPjDnnVmBp4KooU-4" value="editer un mdp" style="ellipse;whiteSpace=wrap;html=1;" vertex="1" parent="1">
          <mxGeometry x="614" y="419.5" width="140" height="70" as="geometry" />
        </mxCell>
        <mxCell id="ndePbhPjDnnVmBp4KooU-5" value="supprimer un mdp" style="ellipse;whiteSpace=wrap;html=1;" vertex="1" parent="1">
          <mxGeometry x="760" y="380" width="140" height="70" as="geometry" />
        </mxCell>
        <mxCell id="ndePbhPjDnnVmBp4KooU-6" value="utilisateur" style="shape=umlActor;verticalLabelPosition=bottom;verticalAlign=top;html=1;outlineConnect=0;" vertex="1" parent="1">
          <mxGeometry x="390" y="350.5" width="40" height="69" as="geometry" />
        </mxCell>
        <mxCell id="ndePbhPjDnnVmBp4KooU-7" value="gerer ses mdp" style="ellipse;whiteSpace=wrap;html=1;" vertex="1" parent="1">
          <mxGeometry x="510" y="230" width="140" height="70" as="geometry" />
        </mxCell>
        <mxCell id="ndePbhPjDnnVmBp4KooU-8" value="&amp;lt;&amp;lt;include&amp;gt;&amp;gt;" style="endArrow=open;endSize=12;dashed=1;html=1;rounded=0;" edge="1" parent="1" source="ndePbhPjDnnVmBp4KooU-7" target="ndePbhPjDnnVmBp4KooU-2">
          <mxGeometry width="160" relative="1" as="geometry">
            <mxPoint x="690" y="240" as="sourcePoint" />
            <mxPoint x="720" y="360" as="targetPoint" />
            <Array as="points" />
          </mxGeometry>
        </mxCell>
        <mxCell id="ndePbhPjDnnVmBp4KooU-9" value="&amp;lt;&amp;lt;extend&amp;gt;&amp;gt;" style="endArrow=open;endSize=12;dashed=1;html=1;rounded=0;" edge="1" parent="1" source="ndePbhPjDnnVmBp4KooU-3" target="ndePbhPjDnnVmBp4KooU-7">
          <mxGeometry width="160" relative="1" as="geometry">
            <mxPoint x="560" y="350" as="sourcePoint" />
            <mxPoint x="720" y="350" as="targetPoint" />
          </mxGeometry>
        </mxCell>
        <mxCell id="ndePbhPjDnnVmBp4KooU-10" value="&amp;lt;&amp;lt;extend&amp;gt;&amp;gt;" style="endArrow=open;endSize=12;dashed=1;html=1;rounded=0;" edge="1" parent="1" source="ndePbhPjDnnVmBp4KooU-5" target="ndePbhPjDnnVmBp4KooU-7">
          <mxGeometry width="160" relative="1" as="geometry">
            <mxPoint x="772.7188748522326" y="398.08385607900163" as="sourcePoint" />
            <mxPoint x="641.3045135221879" y="361.89494467146915" as="targetPoint" />
            <Array as="points" />
          </mxGeometry>
        </mxCell>
        <mxCell id="ndePbhPjDnnVmBp4KooU-11" value="&amp;lt;&amp;lt;extend&amp;gt;&amp;gt;" style="endArrow=open;endSize=12;dashed=1;html=1;rounded=0;" edge="1" parent="1" source="ndePbhPjDnnVmBp4KooU-4" target="ndePbhPjDnnVmBp4KooU-7">
          <mxGeometry width="160" relative="1" as="geometry">
            <mxPoint x="700.0295340577734" y="440.3568556244668" as="sourcePoint" />
            <mxPoint x="650.101482515021" y="269.6336543372149" as="targetPoint" />
            <Array as="points" />
          </mxGeometry>
        </mxCell>
        <mxCell id="ndePbhPjDnnVmBp4KooU-12" value="generer un mdp" style="ellipse;whiteSpace=wrap;html=1;" vertex="1" parent="1">
          <mxGeometry x="580" y="500" width="140" height="70" as="geometry" />
        </mxCell>
        <mxCell id="ndePbhPjDnnVmBp4KooU-13" value="verifier la robutesse" style="ellipse;whiteSpace=wrap;html=1;" vertex="1" parent="1">
          <mxGeometry x="540" y="600" width="140" height="70" as="geometry" />
        </mxCell>
        <mxCell id="ndePbhPjDnnVmBp4KooU-14" value="" style="endArrow=none;html=1;rounded=0;" edge="1" parent="1" source="ndePbhPjDnnVmBp4KooU-6" target="ndePbhPjDnnVmBp4KooU-7">
          <mxGeometry width="50" height="50" relative="1" as="geometry">
            <mxPoint x="620" y="370" as="sourcePoint" />
            <mxPoint x="670" y="320" as="targetPoint" />
          </mxGeometry>
        </mxCell>
        <mxCell id="ndePbhPjDnnVmBp4KooU-15" value="" style="endArrow=none;html=1;rounded=0;" edge="1" parent="1" source="ndePbhPjDnnVmBp4KooU-6" target="ndePbhPjDnnVmBp4KooU-13">
          <mxGeometry width="50" height="50" relative="1" as="geometry">
            <mxPoint x="530" y="430" as="sourcePoint" />
            <mxPoint x="580" y="380" as="targetPoint" />
          </mxGeometry>
        </mxCell>
        <mxCell id="ndePbhPjDnnVmBp4KooU-16" value="" style="endArrow=none;html=1;rounded=0;" edge="1" parent="1" source="ndePbhPjDnnVmBp4KooU-6" target="ndePbhPjDnnVmBp4KooU-12">
          <mxGeometry width="50" height="50" relative="1" as="geometry">
            <mxPoint x="540" y="440" as="sourcePoint" />
            <mxPoint x="590" y="390" as="targetPoint" />
          </mxGeometry>
        </mxCell>
      </root>
    </mxGraphModel>
  </diagram>
</mxfile>
